<svg id="Layer_1" data-name="Layer 1" xmlns="http://www.w3.org/2000/svg" viewBox="0 0 1314.24 509.74"><defs><style>.cls-1{fill:#fff;}</style></defs><path class="cls-1" d="M657,0a93,93,0,0,0-93,93V352.77L728.87,151.86h0A93,93,0,0,0,657,0Z"/><path class="cls-1" d="M657,509.74a93,93,0,0,0,93-93V157L585,357.87h0A93,93,0,0,0,657,509.74Z"/><path class="cls-1" d="M1066.18,401.76c12.33-10.75,25.68-22.38,40.24-34.94,38-32.77,76.48-49.39,114.41-49.39a133,133,0,0,1,66,17.81L1146.42,63.42l-.23.23-6.56-13.34a89.78,89.78,0,0,0-160.19-2.14l-1.21,2.31L838.94,320.21l-29.62,57.4a89.79,89.79,0,0,0,79.16,132.13C942.23,509.74,976,480.34,1066.18,401.76Z"/><path class="cls-1" d="M1247.11,339c-.92-.2-1.79-.44-2.73-.62s-1.94-.29-2.91-.44c-1.91-.3-3.82-.6-5.81-.8-3.31-.32-6.7-.53-10.22-.53-32.88,0-68.4,15.48-105.58,46-14.49,12.51-27.79,24.09-40.07,34.79-51.1,44.52-85.53,74.51-116.62,92.36h264.56A86.48,86.48,0,0,0,1247.11,339Z"/><path class="cls-1" d="M93.41,192.31a133.07,133.07,0,0,1-66-17.81L167.83,446.32l.22-.24,6.56,13.35a89.78,89.78,0,0,0,160.19,2.14l1.21-2.31L475.3,189.53l29.63-57.4A89.79,89.79,0,0,0,425.76,0C372,0,338.26,29.4,248.07,108c-12.34,10.75-25.69,22.38-40.25,34.94C169.83,175.69,131.34,192.31,93.41,192.31Z"/><path class="cls-1" d="M0,86.51a86.49,86.49,0,0,0,67.14,84.26c.91.2,1.79.44,2.72.62s1.94.28,2.91.44c1.91.3,3.82.6,5.81.79,3.31.33,6.71.54,10.23.54,32.88,0,68.4-15.49,105.57-46,14.49-12.5,27.79-24.08,40.07-34.78C285.55,47.84,320,17.85,351.07,0H86.51A86.51,86.51,0,0,0,0,86.51Z"/></svg>