<svg xmlns="http://www.w3.org/2000/svg" width="43.005" height="170.41" viewBox="0 0 43.005 170.41">
  <defs>
    <style>
      .cls-1 {
        fill: #212121;
      }
    </style>
  </defs>
  <path id="Path_9143" data-name="Path 9143" class="cls-1" d="M42.56,147.85a1.491,1.491,0,0,0-2.12,0L23,165.29V1.5a1.5,1.5,0,0,0-3,0V165.29L2.56,147.85a1.5,1.5,0,0,0-2.12,2.12l20,20a1.508,1.508,0,0,0,1.06.44,1.55,1.55,0,0,0,.56-.11,1.451,1.451,0,0,0,.5-.33l20-20A1.491,1.491,0,0,0,42.56,147.85Z" transform="translate(0.002)"/>
</svg>
